<?xml version="1.0" standalone="no"?>
<!DOCTYPE svg PUBLIC "-//W3C//DTD SVG 20010904//EN"
 "http://www.w3.org/TR/2001/REC-SVG-20010904/DTD/svg10.dtd">
<svg version="1.0" xmlns="http://www.w3.org/2000/svg"
 width="284.000000pt" height="512.000000pt" viewBox="0 0 284.000000 512.000000"
 preserveAspectRatio="xMidYMid meet">

<g transform="translate(0.000000,512.000000) scale(0.100000,-0.100000)"
fill="#000000" stroke="none">
<path d="M1070 5107 c0 -7 7 -22 16 -33 8 -10 13 -13 9 -6 -5 9 60 12 309 12
246 0 316 -3 316 -12 0 -20 20 14 20 35 0 16 -23 17 -335 17 -269 0 -335 -3
-335 -13z"/>
<path d="M1073 5047 c-36 -14 -48 -24 -48 -40 0 -7 -5 -12 -12 -12 -7 0 -18
-6 -25 -14 -10 -11 -10 -13 0 -7 10 6 11 1 7 -21 -7 -28 -7 -28 7 -4 7 13 26
34 41 45 27 20 41 21 360 24 353 3 371 1 407 -46 11 -13 20 -20 20 -15 0 5
-11 20 -25 33 -31 29 -24 41 8 14 13 -10 10 -7 -5 9 -22 21 -35 26 -56 21 -18
-4 -23 -3 -14 4 26 18 -31 22 -333 21 -203 0 -310 -4 -332 -12z m-13 -21 c0
-2 -7 -7 -16 -10 -8 -3 -12 -2 -9 4 6 10 25 14 25 6z"/>
<path d="M1051 4974 c-42 -35 -44 -92 -5 -123 15 -12 35 -21 45 -21 26 0 59
35 59 63 0 26 -28 57 -51 57 -8 0 -3 -6 11 -13 34 -17 39 -60 8 -81 -29 -21
-40 -20 -66 4 -28 26 -28 69 -2 98 21 22 24 22 365 22 332 0 346 -1 365 -20
54 -54 -5 -145 -67 -105 -48 32 -9 106 39 76 21 -13 22 -13 9 2 -18 22 -44 21
-64 -1 -23 -25 -21 -57 5 -82 26 -24 46 -25 76 -4 32 22 43 57 31 94 -21 58
-34 60 -398 60 l-329 0 -31 -26z"/>
<path d="M1065 4929 c-4 -6 -5 -12 -2 -15 2 -3 7 2 10 11 7 17 1 20 -8 4z"/>
<path d="M1598 4903 c12 -2 30 -2 40 0 9 3 -1 5 -23 4 -22 0 -30 -2 -17 -4z"/>
<path d="M1190 4872 c0 -10 -7 -27 -16 -38 -14 -18 -15 -18 -8 6 6 24 6 23
-18 -5 -33 -38 -85 -40 -125 -4 l-28 24 25 -29 c15 -18 19 -27 10 -24 -8 2
-25 19 -37 38 -13 18 -23 27 -23 20 0 -6 16 -28 35 -47 38 -38 55 -39 119 -7
35 17 39 17 31 3 -4 -5 -18 -14 -31 -19 -18 -7 -24 -16 -23 -37 2 -24 2 -25 6
-5 2 12 18 29 34 38 16 8 35 26 41 39 l11 25 224 0 c216 0 223 1 223 20 0 19
-7 20 -225 20 -210 0 -225 -1 -225 -18z m60 -2 c0 -5 -7 -10 -15 -10 -8 0 -15
5 -15 10 0 6 7 10 15 10 8 0 15 -4 15 -10z m120 0 c0 -5 -7 -10 -15 -10 -8 0
-15 5 -15 10 0 6 7 10 15 10 8 0 15 -4 15 -10z m120 0 c0 -5 -7 -10 -15 -10
-8 0 -15 5 -15 10 0 6 7 10 15 10 8 0 15 -4 15 -10z m120 0 c0 -5 -7 -10 -15
-10 -8 0 -15 5 -15 10 0 6 7 10 15 10 8 0 15 -4 15 -10z m-543 -76 c-3 -3 -12
-4 -19 -1 -8 3 -5 6 6 6 11 1 17 -2 13 -5z"/>
<path d="M1651 4874 c-1 -12 8 -33 20 -48 11 -14 16 -26 10 -26 -5 0 -17 10
-25 22 -9 12 -16 17 -16 11 0 -18 51 -54 69 -49 9 3 32 7 51 11 26 5 31 3 20
-4 -9 -7 -10 -11 -3 -11 7 0 22 10 35 23 13 12 16 16 6 8 -26 -20 -32 -8 -8
14 11 10 20 23 20 28 0 5 -9 -2 -20 -16 -43 -54 -125 -41 -147 23 -8 24 -12
28 -12 14z"/>
<path d="M1750 4880 c-9 -6 -10 -10 -3 -10 6 0 15 5 18 10 8 12 4 12 -15 0z"/>
<path d="M1728 4773 c7 -3 16 -2 19 1 4 3 -2 6 -13 5 -11 0 -14 -3 -6 -6z"/>
<path d="M1104 4595 c0 -71 1 -99 3 -62 2 37 2 96 0 130 -2 34 -3 4 -3 -68z"/>
<path d="M1104 4340 c0 -69 1 -97 3 -62 2 34 2 90 0 125 -2 34 -3 6 -3 -63z"/>
<path d="M1104 4000 c0 -118 2 -167 3 -107 2 59 2 155 0 215 -1 59 -3 10 -3
-108z"/>
<path d="M1101 3754 c0 -11 3 -14 6 -6 3 7 2 16 -1 19 -3 4 -6 -2 -5 -13z"/>
<path d="M1104 3635 c0 -55 1 -76 3 -47 2 29 2 74 0 100 -2 26 -3 2 -3 -53z"/>
<path d="M1104 3245 c0 -159 2 -223 3 -142 2 82 2 212 0 290 -1 78 -3 12 -3
-148z"/>
<path d="M1102 2905 c0 -16 2 -22 5 -12 2 9 2 23 0 30 -3 6 -5 -1 -5 -18z"/>
<path d="M1102 2830 c0 -14 2 -19 5 -12 2 6 2 18 0 25 -3 6 -5 1 -5 -13z"/>
<path d="M1103 2725 c0 -44 2 -61 4 -37 2 23 2 59 0 80 -2 20 -4 1 -4 -43z"/>
<path d="M1103 2495 c0 -33 2 -45 4 -27 2 18 2 45 0 60 -2 15 -4 0 -4 -33z"/>
<path d="M1103 2390 c0 -25 2 -35 4 -22 2 12 2 32 0 45 -2 12 -4 2 -4 -23z"/>
<path d="M1103 2245 c0 -33 2 -45 4 -27 2 18 2 45 0 60 -2 15 -4 0 -4 -33z"/>
<path d="M1103 2090 c0 -47 2 -66 4 -42 2 23 2 61 0 85 -2 23 -4 4 -4 -43z"/>
<path d="M1101 1984 c0 -11 3 -14 6 -6 3 7 2 16 -1 19 -3 4 -6 -2 -5 -13z"/>
<path d="M1102 1935 c0 -16 2 -22 5 -12 2 9 2 23 0 30 -3 6 -5 -1 -5 -18z"/>
<path d="M1103 1800 c0 -41 2 -58 4 -37 2 20 2 54 0 75 -2 20 -4 3 -4 -38z"/>
<path d="M1102 1685 c0 -16 2 -22 5 -12 2 9 2 23 0 30 -3 6 -5 -1 -5 -18z"/>
<path d="M1101 1604 c0 -11 3 -14 6 -6 3 7 2 16 -1 19 -3 4 -6 -2 -5 -13z"/>
<path d="M1103 1525 c0 -33 2 -45 4 -27 2 18 2 45 0 60 -2 15 -4 0 -4 -33z"/>
<path d="M1102 1420 c0 -19 2 -27 5 -17 2 9 2 25 0 35 -3 9 -5 1 -5 -18z"/>
<path d="M1102 1310 c0 -14 2 -19 5 -12 2 6 2 18 0 25 -3 6 -5 1 -5 -13z"/>
<path d="M1102 1220 c0 -19 2 -27 5 -17 2 9 2 25 0 35 -3 9 -5 1 -5 -18z"/>
<path d="M1102 1160 c0 -14 2 -19 5 -12 2 6 2 18 0 25 -3 6 -5 1 -5 -13z"/>
<path d="M1101 934 c0 -11 3 -14 6 -6 3 7 2 16 -1 19 -3 4 -6 -2 -5 -13z"/>
<path d="M1103 865 c0 -22 2 -30 4 -17 2 12 2 30 0 40 -3 9 -5 -1 -4 -23z"/>
<path d="M1103 770 c0 -30 2 -43 4 -27 2 15 2 39 0 55 -2 15 -4 2 -4 -28z"/>
<path d="M1101 684 c0 -11 3 -14 6 -6 3 7 2 16 -1 19 -3 4 -6 -2 -5 -13z"/>
<path d="M1838 603 c7 -3 16 -2 19 1 4 3 -2 6 -13 5 -11 0 -14 -3 -6 -6z"/>
<path d="M938 593 c6 -2 18 -2 25 0 6 3 1 5 -13 5 -14 0 -19 -2 -12 -5z"/>
<path d="M2040 550 c8 -5 20 -10 25 -10 6 0 3 5 -5 10 -8 5 -19 10 -25 10 -5
0 -3 -5 5 -10z"/>
<path d="M760 540 c-9 -6 -10 -10 -3 -10 6 0 15 5 18 10 8 12 4 12 -15 0z"/>
<path d="M702 503 c-24 -24 -24 -25 -2 -8 42 33 44 35 37 35 -4 0 -19 -12 -35
-27z"/>
<path d="M2141 495 c15 -16 29 -37 32 -45 5 -13 6 -13 6 1 1 8 -14 28 -31 45
l-33 29 26 -30z"/>
<path d="M1878 485 c-69 -59 -246 -95 -479 -96 -92 -1 -146 -4 -134 -9 16 -7
17 -9 3 -9 -19 -1 -18 -29 3 -42 23 -14 -42 -11 -129 7 -42 8 -106 28 -141 45
-77 35 -81 36 -51 4 26 -27 111 -58 215 -77 106 -20 460 -17 554 5 146 33 196
74 189 156 l-3 39 -27 -23z"/>
<path d="M660 431 c0 -6 4 -13 10 -16 6 -3 7 1 4 9 -7 18 -14 21 -14 7z"/>
<path d="M2160 385 c-52 -56 -177 -102 -370 -137 -89 -16 -172 -22 -373 -25
-217 -5 -256 -8 -246 -19 9 -11 8 -18 -1 -29 -10 -12 -10 -15 4 -15 23 0 20
-21 -4 -27 -11 -3 -17 -9 -14 -14 8 -13 -25 -11 -133 10 -115 22 -203 51 -284
92 -69 34 -89 37 -63 8 50 -55 182 -102 379 -135 170 -29 614 -27 780 3 224
41 337 101 350 186 4 23 5 62 3 85 l-3 44 -25 -27z"/>
</g>
</svg>
